<svg xmlns="http://www.w3.org/2000/svg" xmlns:xlink="http://www.w3.org/1999/xlink" viewBox="0 0 1080 1080" width="1080" height="1080" style="width: 100%; height: 100%; transform: translate3d(0px, 0px, 0px);" preserveAspectRatio="xMidYMid meet" id="Abstract Wave"><defs><clipPath id="__lottie_element_2187"><rect width="1080" height="1080" x="0" y="0"/></clipPath></defs><g clip-path="url(#__lottie_element_2187)"><g style="display: block;" transform="matrix(1,0,0,1,-8.15399169921875,540)" opacity="1"><g opacity="1" transform="matrix(1,0,0,1,0,0)"><path stroke-linecap="butt" stroke-linejoin="miter" fill-opacity="0" stroke-miterlimit="4" stroke="rgb(232,156,72)" stroke-opacity="1" stroke-width="6" d=" M0,0 C3.690999984741211,5.865449905395508 7.382999897003174,13.214117050170898 11.074000358581543,15.233756065368652 C14.765000343322754,17.253395080566406 18.457000732421875,13.548415184020996 22.148000717163086,3.030463695526123 C25.839000701904297,-7.48748779296875 29.530000686645508,-25.43685531616211 33.22100067138672,-40.42911148071289 C36.9119987487793,-55.42136764526367 40.604000091552734,-68.57254028320312 44.29499816894531,-68.5964584350586 C47.986000061035156,-68.62037658691406 51.678001403808594,-55.77465057373047 55.36899948120117,-32.09292984008789 C59.060001373291016,-8.411210060119629 62.75199890136719,27.45590591430664 66.44300079345703,58.21653747558594 C70.13400268554688,88.9771728515625 73.82599639892578,116.65237426757812 77.51699829101562,123.72410583496094 C81.20800018310547,130.79583740234375 84.9000015258789,117.96028137207031 88.59100341796875,86.41792297363281 C92.28199768066406,54.87556076049805 95.9729995727539,2.8670709133148193 99.66400146484375,-46.28819274902344 C103.3550033569336,-95.4434585571289 107.0469970703125,-144.81951904296875 110.73799896240234,-167.68826293945312 C114.42900085449219,-190.55702209472656 118.12100219726562,-188.56570434570312 121.81199645996094,-157.41661071777344 C125.50299835205078,-126.26752471923828 129.19500732421875,-64.27742767333984 132.88600158691406,2.0026540756225586 C136.57699584960938,68.2827377319336 140.2689971923828,142.89625549316406 143.9600067138672,188.554931640625 C147.6510009765625,234.21360778808594 151.34300231933594,253.91921997070312 155.03399658203125,233.23550415039062 C158.72500610351562,212.55177307128906 162.41600036621094,150.4671173095703 166.10699462890625,72.34346771240234 C169.79800415039062,-5.780185699462891 173.49000549316406,-104.63365936279297 177.18099975585938,-177.03343200683594 C180.8719940185547,-249.43321228027344 184.56399536132812,-299.9600524902344 188.2550048828125,-300.2039489746094 C191.9459991455078,-300.4478454589844 195.63800048828125,-250.6883087158203 199.32899475097656,-169.5946502685547 C203.02000427246094,-88.50100708007812 206.71200561523438,28.73044776916504 210.4029998779297,127.84236907958984 C214.093994140625,226.95428466796875 217.78599548339844,314.0888366699219 221.4770050048828,344.5557556152344 C225.16799926757812,375.022705078125 228.85899353027344,350.935546875 232.5500030517578,278.4106750488281 C236.24099731445312,205.8857879638672 239.93299865722656,80.70014190673828 243.62399291992188,-40.64295959472656 C247.31500244140625,-161.98605346679688 251.0070037841797,-286.91162109375 254.697998046875,-354.21966552734375 C258.3890075683594,-421.5277404785156 262.08099365234375,-435.5518493652344 265.7720031738281,-384.4641418457031 C269.4630126953125,-333.3764343261719 273.1549987792969,-214.30352783203125 276.84600830078125,-79.58507537841797 C280.5369873046875,55.13337326049805 284.2279968261719,213.66270446777344 287.91900634765625,320.4822692871094 C291.6099853515625,427.3018493652344 295.302001953125,489.108642578125 298.9930114746094,472.0470886230469 C302.6839904785156,454.98553466796875 306.3760070800781,358.2774353027344 310.0669860839844,222.7766876220703 C313.75799560546875,87.27595520019531 317.45001220703125,-95.15849304199219 321.1409912109375,-239.3373565673828 C324.8320007324219,-383.5162048339844 328.52398681640625,-499.4849548339844 332.2149963378906,-522.4161376953125 C335.906005859375,-545.3472900390625 339.5979919433594,-480.2214050292969 343.28900146484375,-360.12237548828125 C346.9800109863281,-240.0233154296875 350.6709899902344,-56.5656852722168 354.36199951171875,104.63306427001953 C358.0530090332031,265.8318176269531 361.7449951171875,414.5988464355469 365.4360046386719,481.50848388671875 C369.12701416015625,548.4176025390625 372.8190002441406,537.548095703125 376.510009765625,453.9720153808594 C380.20098876953125,370.39593505859375 383.89300537109375,209.01747131347656 387.5840148925781,45.1501579284668 C391.2749938964844,-118.71715545654297 394.9670104980469,-295.06427001953125 398.6579895019531,-401.59228515625 C402.3489990234375,-508.1203308105469 406.0409851074219,-551.324951171875 409.73199462890625,-511.0428466796875 C413.4230041503906,-470.7607727050781 417.114013671875,-344.5362854003906 420.80499267578125,-191.2758026123047 C424.4960021972656,-38.015316009521484 428.18798828125,151.6238555908203 431.8789978027344,289.1414489746094 C435.57000732421875,426.6590270996094 439.2619934082031,520.43701171875 442.9530029296875,526.7128295898438 C446.6440124511719,532.9881591796875 450.33599853515625,452.1431579589844 454.0270080566406,321.9056091308594 C457.7179870605469,191.6680450439453 461.4100036621094,4.09942626953125 465.10101318359375,-153.26559448242188 C468.7919921875,-310.630615234375 472.4830017089844,-447.3872985839844 476.17401123046875,-499.7113952636719 C479.864990234375,-552.0355224609375 483.5570068359375,-523.1188354492188 487.24798583984375,-426.4560546875 C490.9389953613281,-329.7932434082031 494.6310119628906,-159.491455078125 498.3219909667969,4.973182201385498 C502.01300048828125,169.4378204345703 505.7049865722656,338.091796875 509.39599609375,432.22613525390625 C513.0869750976562,526.3604736328125 516.7789916992188,551.7153930664062 520.469970703125,496.4578857421875 C524.1610107421875,441.2004089355469 527.85302734375,301.96136474609375 531.5440063476562,143.72164916992188 C535.2349853515625,-14.518088340759277 538.926025390625,-201.40577697753906 542.6170043945312,-329.72442626953125 C546.3079833984375,-458.0430908203125 550,-535.615234375 553.6909790039062,-526.239501953125 C557.3820190429688,-516.8638305664062 561.073974609375,-419.9686584472656 564.7650146484375,-280.77301025390625 C568.4559936523438,-141.57737731933594 572.1480102539062,48.403751373291016 575.8389892578125,200.51051330566406 C579.530029296875,352.6172790527344 583.2219848632812,476.1219787597656 586.9130249023438,513.387939453125 C590.60400390625,550.6539306640625 594.2960205078125,503.9529724121094 597.9869995117188,395.0783386230469 C601.677978515625,286.2041931152344 605.3690185546875,108.52001953125 609.0599975585938,-55.05242156982422 C612.7509765625,-218.62486267089844 616.4429931640625,-378.0571594238281 620.1339721679688,-458.9452209472656 C623.8250122070312,-539.833251953125 627.5170288085938,-547.1092529296875 631.2080078125,-477.37628173828125 C634.8989868164062,-407.643310546875 638.5910034179688,-256.651611328125 642.281982421875,-94.8656005859375 C645.9730224609375,66.92041778564453 649.6649780273438,249.36407470703125 653.3560180664062,367.32171630859375 C657.0469970703125,485.27935791015625 660.739013671875,545.9425659179688 664.4299926757812,521.000732421875 C668.1209716796875,496.05889892578125 671.81201171875,383.9918518066406 675.5029907226562,237.0985870361328 C679.1939697265625,90.20530700683594 682.885986328125,-100.4688491821289 686.5770263671875,-245.93930053710938 C690.2680053710938,-391.4097595214844 693.9600219726562,-500.5464172363281 697.6510009765625,-522.4161376953125 C701.3419799804688,-544.2858276367188 705.0339965820312,-480.2214050292969 708.7249755859375,-360.12237548828125 C712.416015625,-240.0233154296875 716.1079711914062,-56.5656852722168 719.7990112304688,104.63306427001953 C723.489990234375,265.8318176269531 727.1810302734375,414.5988464355469 730.8720092773438,481.50848388671875 C734.56298828125,548.4176025390625 738.2550048828125,537.548095703125 741.9459838867188,453.9720153808594 C745.6370239257812,370.39593505859375 749.3289794921875,209.01747131347656 753.02001953125,45.1501579284668 C756.7109985351562,-118.71715545654297 760.4030151367188,-295.06427001953125 764.093994140625,-401.59228515625 C767.7849731445312,-508.1203308105469 771.4769897460938,-548.1226196289062 775.1680297851562,-503.0401916503906 C778.8590087890625,-457.9582824707031 782.551025390625,-329.6119384765625 786.2420043945312,-181.8617706298828 C789.9329833984375,-34.11159896850586 793.6240234375,142.14666748046875 797.3150024414062,265.2080078125 C801.0059814453125,388.2693786621094 804.697998046875,465.49127197265625 808.3889770507812,465.43951416015625 C812.0800170898438,465.3877258300781 815.77197265625,387.79254150390625 819.4630126953125,273.65582275390625 C823.1539916992188,159.51914978027344 826.8460083007812,1.718860387802124 830.5369873046875,-125.14987182617188 C834.22802734375,-252.01861572265625 837.9199829101562,-355.6135559082031 841.6110229492188,-391.27294921875 C845.302001953125,-426.932373046875 848.9940185546875,-396.57843017578125 852.6849975585938,-319.603515625 C856.3759765625,-242.62863159179688 860.0670166015625,-114.1242904663086 863.7579956054688,3.5602736473083496 C867.448974609375,121.24484252929688 871.1409912109375,235.2816925048828 874.8319702148438,294.919189453125 C878.5230102539062,354.55670166015625 882.2150268554688,363.2123718261719 885.906005859375,322.086669921875 C889.5969848632812,280.9609680175781 893.2890014648438,187.29786682128906 896.97998046875,88.41923522949219 C900.6710205078125,-10.459400177001953 904.3629760742188,-120.6524887084961 908.0540161132812,-191.785888671875 C911.7449951171875,-262.9187927246094 915.43701171875,-299.162353515625 919.1279907226562,-288.4308776855469 C922.8189697265625,-277.6999206542969 926.510009765625,-219.0749053955078 930.2009887695312,-144.46929931640625 C933.8920288085938,-69.86369323730469 937.583984375,25.412818908691406 941.2750244140625,96.44278717041016 C944.9660034179688,167.47274780273438 948.6580200195312,218.48587036132812 952.3489990234375,229.70401000976562 C956.0399780273438,240.92213439941406 959.7319946289062,212.76966857910156 963.4229736328125,163.51113891601562 C967.114013671875,114.25262451171875 970.8060302734375,40.686279296875 974.4970092773438,-20.937236785888672 C978.18798828125,-82.56075286865234 981.8790283203125,-135.9705352783203 985.5700073242188,-159.14193725585938 C989.260986328125,-182.3133544921875 992.9530029296875,-176.4271697998047 996.6439819335938,-149.51388549804688 C1000.3350219726562,-122.6006088256836 1004.0269775390625,-72.77896118164062 1007.718017578125,-26.5286922454834 C1011.4089965820312,19.721576690673828 1015.1010131835938,65.26847076416016 1018.7919921875,90.39218139648438 C1022.4829711914062,115.51588439941406 1026.175048828125,121.5645980834961 1029.865966796875,110.7269287109375 C1033.5570068359375,99.88976287841797 1037.2490234375,71.24288940429688 1040.93994140625,42.43358612060547 C1044.6309814453125,13.624277114868164 1048.322021484375,-17.223445892333984 1052.012939453125,-35.763301849365234 C1055.7039794921875,-54.30315399169922 1059.39599609375,-61.54124450683594 1063.0870361328125,-58.43584060668945 C1066.7779541015625,-55.33043670654297 1070.469970703125,-41.428138732910156 1074.1610107421875,-28.197534561157227 C1077.85205078125,-14.966429710388184 1081.5439453125,-1.419028401374817 1085.2349853515625,4.681556224822998 C1088.926025390625,10.782140731811523 1092.6180419921875,8.737334251403809 1096.3089599609375,5.385798454284668"/></g></g></g></svg>